Coordinates
version=1
nRows=23
nColumns=28
inDegrees=yes

Units are S.I. units (second, meters, Newtons, ...)
Angles are in degrees.

endheader
time	pelvis_tilt	pelvis_list	pelvis_rotation	pelvis_tx	pelvis_ty	pelvis_tz	hip_flexion_r	hip_adduction_r	hip_rotation_r	knee_angle_r	ankle_angle_r	subtalar_angle_r	mtp_angle_r	hip_flexion_l	hip_adduction_l	hip_rotation_l	knee_angle_l	socket_flexion	socket_adduction	socket_rotation	socket_tx	socket_ty	socket_tz	foot_flex	lumbar_extension	lumbar_bending	lumbar_rotation
      0.00000000	     -0.02217933	     -5.64312715	     -7.85618677	     -0.91313271	      0.99185145	      0.31583535	    -25.57097377	      7.22688269	      3.93103707	     -3.89827178	     12.84598568	     -0.93120495	      5.19363269	     26.47722229	     -8.52061930	      3.92178220	     -1.49459034	      2.22738881	     -0.66400538	      3.52875737	      0.00000000	     -0.00111166	      0.00000000	     -0.51425134	    -11.74154488	      3.46853307	     10.88578866
      0.00416667	     -0.09686562	     -5.70291913	     -7.86443458	     -0.90754078	      0.99108547	      0.31549869	    -25.59320590	      7.25187353	      3.89633780	     -4.30067009	     12.72472725	     -0.98738785	      5.19455108	     26.28620097	     -8.49719971	      3.93924062	     -1.47433058	      2.19855056	     -0.72385219	      3.63608316	      0.00000000	     -0.00156629	      0.00000000	     -0.84259890	    -11.64482899	      3.53101799	     10.89168990
      0.00833333	     -0.16711501	     -5.77893985	     -7.89713731	     -0.90175249	      0.99034135	      0.31514909	    -25.58605511	      7.27661979	      3.87061831	     -4.78821709	     12.58421414	     -1.03990313	      5.20339957	     26.06940159	     -8.49538530	      3.92753021	     -1.44271699	      2.17450422	     -0.78365315	      3.78565523	      0.00000000	     -0.00206988	      0.00000000	     -1.17717326	    -11.55895170	      3.59675119	     10.91205616
      0.01250000	     -0.24526094	     -5.81625477	     -7.86810809	     -0.89553396	      0.98950208	      0.31477165	    -25.70117928	      7.28733833	      3.92901723	     -5.05517150	     12.53077190	     -1.04311972	      5.20469954	     25.87828092	     -8.42042606	      3.96894440	     -1.48330456	      2.15683428	     -0.84646776	      3.85022961	      0.00000000	     -0.00264312	      0.00000000	     -1.27036708	    -11.38855725	      3.62936047	     10.91864377
      0.01666667	     -0.31482343	     -5.90030916	     -7.95583615	     -0.88951878	      0.98882085	      0.31445772	    -25.59457175	      7.29471563	      3.86412205	     -5.75354159	     12.28390639	     -1.13601450	      5.20426512	     25.61574082	     -8.45718961	      3.92884095	     -1.40593585	      2.12874760	     -0.91086767	      4.10985291	      0.00000000	     -0.00324775	      0.00000000	     -1.84734898	    -11.35685137	      3.70089765	     10.94952941
      0.02083333	     -0.12975731	     -5.79587797	     -8.41419333	     -0.88285775	      0.98865945	      0.31476379	    -25.68604387	      6.88399224	      3.69931878	     -6.58190929	     11.97282996	     -0.65851244	      6.89149340	     24.96175971	     -8.44017893	      2.50156922	     -1.46081827	      1.94476792	     -1.02067569	      5.17679305	      0.00000000	     -0.00402165	      0.00000000	     -2.09864847	    -11.49648018	      3.45093284	     11.50486518
      0.02500000	     -0.21477811	     -5.84408893	     -8.41204625	     -0.87638715	      0.98790125	      0.31436507	    -25.66270293	      6.88984721	      3.70859988	     -7.10842436	     11.74641300	     -0.73185875	      6.89261165	     24.74158310	     -8.39125471	      2.55158963	     -1.46497244	      1.92095147	     -1.08008794	      5.32891538	      0.00000000	     -0.00471449	      0.00000000	     -2.46290603	    -11.37493792	      3.48339211	     11.50825285
      0.02916667	     -0.30378251	     -5.89655346	     -8.45699678	     -0.86985793	      0.98721662	      0.31401310	    -25.58313141	      6.87581490	      3.70385598	     -7.72980470	     11.47797466	     -0.82052949	      6.90442956	     24.50089892	     -8.36770782	      2.54756167	     -1.45381108	      1.90957643	     -1.14053433	      5.51343149	      0.00000000	     -0.00544862	      0.00000000	     -2.79799619	    -11.25498517	      3.52529494	     11.52201237
      0.03333333	     -0.39443702	     -5.93515268	     -8.50476884	     -0.86322685	      0.98657024	      0.31367607	    -25.49462911	      6.84808844	      3.72678600	     -8.36132381	     11.19991474	     -0.89739753	      6.92792236	     24.25527120	     -8.33240793	      2.52449435	     -1.44105015	      1.90871917	     -1.19746325	      5.72219547	      0.00000000	     -0.00622597	      0.00000000	     -3.11609403	    -11.12293370	      3.54494048	     11.54471016
      0.03750000	     -0.48904922	     -5.95842409	     -8.58411129	     -0.85648048	      0.98599691	      0.31338096	    -25.36292626	      6.78476495	      3.74170616	     -9.05764485	     10.88035316	     -0.98712977	      6.97412239	     23.99132169	     -8.29860597	      2.44226462	     -1.42062118	      1.91004174	     -1.25538054	      5.94681000	      0.00000000	     -0.00703833	      0.00000000	     -3.42069017	    -10.96796642	      3.55482478	     11.58294349
      0.04166667	     -0.58502667	     -5.95605780	     -8.65919933	     -0.84971362	      0.98546127	      0.31312566	    -25.21640974	      6.70436785	      3.78491302	     -9.76117490	     10.54116839	     -1.06716899	      7.03540549	     23.73304617	     -8.24164068	      2.35743679	     -1.41171210	      1.91625925	     -1.31015893	      6.18204884	      0.00000000	     -0.00789391	      0.00000000	     -3.71286642	    -10.82208523	      3.52357446	     11.62675586
      0.04583333	     -0.68976929	     -5.91747850	     -8.78080703	     -0.84290825	      0.98500906	      0.31294990	    -25.02204036	      6.56672074	      3.80680952	    -10.52694948	     10.12577762	     -1.17248370	      7.15063020	     23.47742441	     -8.16975548	      2.17922598	     -1.41236094	      1.94092709	     -1.35389983	      6.43279376	      0.00000000	     -0.00873533	      0.00000000	     -3.98507050	    -10.63760305	      3.45440722	     11.69381548
      0.05000000	     -0.76321897	     -5.86473355	     -8.78137443	     -0.83616447	      0.98465799	      0.31263658	    -24.87426086	      6.47432456	      3.92313036	    -11.23788444	      9.76282495	     -1.23528999	      7.21682775	     23.23719943	     -8.03666640	      2.15103228	     -1.45004965	      1.96200840	     -1.39400065	      6.66971119	      0.00000000	     -0.00947982	      0.00000000	     -4.24734457	    -10.50740992	      3.33663024	     11.71305243
      0.05416667	     -0.63358346	     -5.46476692	     -9.13560276	     -0.82884564	      0.98476908	      0.31287910	    -24.82252218	      5.79602802	      3.72716287	    -12.02438169	      8.34588186	     -1.30227190	     11.77834417	     22.89298459	     -7.66913147	      0.38178281	     -2.23947025	      1.37519834	     -1.58754372	      8.11831795	      0.00000000	     -0.01022968	      0.00000000	     -4.44242434	    -10.46184120	      2.74842022	     12.10336841
      0.05833333	     -0.70222017	     -5.40920816	     -9.13434600	     -0.82212614	      0.98454486	      0.31255701	    -24.58769834	      5.69204977	      3.74371424	    -12.87237605	      7.86443201	     -1.43503778	     11.76645351	     22.65398106	     -7.53236936	      0.46417300	     -2.28222917	      1.42560279	     -1.61737126	      8.18571132	      0.00000000	     -0.01103264	      0.00000000	     -4.68604706	    -10.33014299	      2.65158883	     12.02838985
      0.06250000	     -0.75185198	     -5.32023187	     -9.07349430	     -0.81548437	      0.98440557	      0.31221341	    -24.38130640	      5.59267107	      3.85910440	    -13.68661219	      7.41819714	     -1.52121497	     11.74055480	     22.43160641	     -7.35048293	      0.56587435	     -2.35654468	      1.48761057	     -1.61583911	      8.31607166	      0.00000000	     -0.01172280	      0.00000000	     -4.90179778	    -10.23715425	      2.50173463	     11.96406433
      0.06666667	     -0.94992583	     -5.04565617	     -9.12491292	     -0.80846774	      0.98415256	      0.31208106	    -23.90445811	      5.26836061	      3.73318445	    -14.65917642	      6.75858032	     -1.77817435	     11.96883473	     22.29414595	     -7.03651775	      0.43589901	     -2.34044477	      1.58879980	     -1.64849826	      8.46199441	      0.00000000	     -0.01234186	      0.00000000	     -5.03812883	     -9.85422831	      2.16737612	     11.90532848
      0.07083333	     -0.95521031	     -4.95410769	     -9.06244376	     -0.80194311	      0.98429726	      0.31178612	    -23.64821216	      5.16894966	      3.84654067	    -15.59809595	      6.22776666	     -1.84576273	     11.96390310	     22.05109737	     -6.85814625	      0.49120030	     -2.47380735	      1.64037344	     -1.62804581	      8.54601467	      0.00000000	     -0.01294719	      0.00000000	     -5.24105025	     -9.83241249	      2.00009196	     11.81856635
      0.07500000	     -0.99261691	     -4.75012278	     -9.07837238	     -0.79525597	      0.98442666	      0.31156875	    -23.24725456	      4.90352548	      3.74223355	    -16.70236284	      5.52301873	     -2.03541397	     12.03095179	     21.81825769	     -6.58967551	      0.42133630	     -2.61018336	      1.68626430	     -1.63744993	      8.59902743	      0.00000000	     -0.01353876	      0.00000000	     -5.35682237	     -9.69508110	      1.71919764	     11.71091224
      0.07916667	     -1.00103669	     -4.61942147	     -8.92282281	     -0.78860892	      0.98463631	      0.31124070	    -23.03129111	      4.81802865	      3.93766308	    -17.53169745	      5.08627500	     -2.06761401	     12.02757845	     21.59002920	     -6.36318211	      0.55424655	     -2.74307116	      1.76115936	     -1.61379884	      8.79033429	      0.00000000	     -0.01410770	      0.00000000	     -5.45927083	     -9.61934783	      1.47857815	     11.63889196
      0.08333333	     -1.21306607	     -3.90130019	     -8.91016724	     -0.78153806	      0.98448530	      0.31091100	    -22.12507179	      3.94696368	      2.83204151	    -19.03771135	      3.51422331	     -1.63743631	     16.45098170	     21.87840646	     -5.57017752	     -0.47652164	     -3.76536709	      1.25108879	     -1.78668789	      9.52680287	      0.00000000	     -0.01417941	      0.00000000	     -5.53487029	     -9.14721033	      0.66692187	     11.42133126
      0.08750000	     -1.16976394	     -3.73809760	     -8.85108017	     -0.77507702	      0.98490455	      0.31067985	    -21.75277046	      3.76662048	      2.89302908	    -20.20335733	      2.77496864	     -1.87524486	     16.35850705	     21.59037166	     -5.33537619	     -0.45612526	     -3.89993175	      1.32747778	     -1.73655922	      9.53929948	      0.00000000	     -0.01468991	      0.00000000	     -5.64774594	     -9.15035371	      0.41665145	     11.26708292
      0.09166667	     -1.19226313	     -3.41339330	     -8.74187760	     -0.76846736	      0.98530597	      0.31045868	    -21.27146667	      3.44751867	      2.79360993	    -21.39663826	      1.95979164	     -2.17089103	     16.32872113	     21.38026401	     -4.92904032	     -0.52628640	     -4.01957786	      1.44040323	     -1.69808684	      9.59504722	      0.00000000	     -0.01492599	      0.00000000	     -5.69342919	     -9.02758898	     -0.03502032	     11.10433251
